<svg xmlns="http://www.w3.org/2000/svg" viewBox="0 0 42 45.98"><title>income-icon</title><path d="M17.71,10a2.15,2.15,0,0,0,2.06-.39c1-.92,2-1.93,3.35-1.83a4.06,4.06,0,0,1,2.77,1.88,0.93,0.93,0,0,0,.7.35,2.57,2.57,0,0,0,1.74-.77c0.59-.52,1.25-1.06,2-1.62,1.14-.91,3.18-2.55,3.5-3.33A2.42,2.42,0,0,0,32.5,4a10,10,0,0,0-2.32.37,8.25,8.25,0,0,1-1.76.3,1.31,1.31,0,0,1-1-.36C25.88,2.71,24.74,2,23.6,2c-1.47,0-2.49,1.18-3.21,2.2s-1.76,1-3.79,1a6,6,0,0,0-3.31.71C14.56,8,16.2,9.61,17.71,10Z" transform="translate(-4 -2.02)"/><path d="M40.43,20l0.07,0a1,1,0,0,0,.73-1.69,9.26,9.26,0,0,0-7.64-2.77A25.41,25.41,0,0,1,40.43,20Z" transform="translate(-4 -2.02)"/><path d="M34.45,15.93A6.55,6.55,0,0,1,41,15.88a1,1,0,0,0,1-1.75,8.63,8.63,0,0,0-8.87.25,7,7,0,0,0,0,1C33.55,15.51,34,15.71,34.45,15.93Z" transform="translate(-4 -2.02)"/><path d="M29.91,16.43c0.32-.18.68-0.44,1.09-0.71l0.1-.07a10.62,10.62,0,0,1,2.18-6.92l0.09-.13a10,10,0,0,0,1-1.82A34.92,34.92,0,0,1,31.54,9.2c-0.67.54-1.32,1.06-1.87,1.55A4.44,4.44,0,0,1,26.45,12a3,3,0,0,1-2.11-1.08A2.47,2.47,0,0,0,23,9.8a4.5,4.5,0,0,0-1.89,1.33,4.12,4.12,0,0,1-2.67,1,4.75,4.75,0,0,1-1.23-.17,7.18,7.18,0,0,1-2.42-1.28,9.33,9.33,0,0,1,2.63,5.49A12,12,0,0,0,29.91,16.43Z" transform="translate(-4 -2.02)"/><path d="M32.45,17.15l-0.31.21c-0.46.32-.87,0.6-1.24,0.8A13.88,13.88,0,0,1,24,20a15.13,15.13,0,0,1-8-2.41C9.68,20.36,4,28.32,4,35.1,4,46,11.07,48,25,48s21-2,21-12.9C46,27,39.27,19.87,32.45,17.15ZM27.76,32l-0.59,1.34H21.38a2.65,2.65,0,0,0,0,.35v0.57a1.34,1.34,0,0,0,0,.22h5.48l-0.57,1.34H21.49q0.73,4.73,4.18,4.73A4.54,4.54,0,0,0,29.06,39v2.31a6.15,6.15,0,0,1-3.39.95q-5.39,0-6.31-6.4H17.67l0.59-1.34h1a1.34,1.34,0,0,1,0-.22V33.72a3,3,0,0,1,0-.33h-1.6L18.24,32h1.19c0.35-1.8,1.69-6,6.24-6a6.91,6.91,0,0,1,4,1.38l-1,1.82a4.5,4.5,0,0,0-3.14-1.52c-2.84,0-3.71,3.14-4,4.35h6.22Z" transform="translate(-4 -2.02)"/></svg>