<?xml version="1.0" encoding="UTF-8"?>
<svg xmlns="http://www.w3.org/2000/svg" xmlns:xlink="http://www.w3.org/1999/xlink" width="50pt" height="50pt" viewBox="0 0 50 50" version="1.1">
<g id="surface1">
<path style="fill:none;stroke-width:2;stroke-linecap:round;stroke-linejoin:miter;stroke:rgb(0%,0%,0%);stroke-opacity:1;stroke-miterlimit:10;" d="M 1 38 L 11.882813 37.382813 C 19.054688 37.382813 19.769531 34.328125 23.277344 31.347656 C 23.277344 31.347656 26.949219 30.152344 29.480469 28.359375 C 32.015625 26.570313 32.726563 23.941406 31.304688 22.0625 C 29.878906 20.179688 26.945313 21.421875 24.261719 22.855469 L 15.03125 27.105469 "/>
<path style="fill:none;stroke-width:2;stroke-linecap:round;stroke-linejoin:miter;stroke:rgb(0%,0%,0%);stroke-opacity:1;stroke-miterlimit:10;" d="M 17.097656 12.675781 C 14.304688 10.917969 13.035156 12.992188 11.1875 14.542969 C 9.289063 16.136719 1 22 1 22 "/>
<path style="fill:none;stroke-width:2;stroke-linecap:round;stroke-linejoin:miter;stroke:rgb(0%,0%,0%);stroke-opacity:1;stroke-miterlimit:10;" d="M 30.640625 32.15625 C 30.640625 32.15625 30.386719 33.492188 30.269531 34.632813 C 30.136719 35.902344 30.121094 37.566406 31.382813 37.898438 C 32.378906 38.15625 33.433594 37.933594 34.382813 36.984375 C 35.257813 36.109375 35.84375 34.625 35.988281 32.328125 "/>
<path style="fill:none;stroke-width:2;stroke-linecap:round;stroke-linejoin:miter;stroke:rgb(0%,0%,0%);stroke-opacity:1;stroke-miterlimit:10;" d="M 24.757813 32.367188 C 24.757813 32.367188 24.597656 34.523438 24.398438 35.617188 C 24.167969 36.871094 24.480469 38.476563 25.789063 38.949219 C 27.335938 39.507813 28.367188 39.113281 29.480469 38.082031 C 29.636719 37.9375 30.246094 37.152344 30.246094 37.152344 "/>
<path style="fill:none;stroke-width:2;stroke-linecap:round;stroke-linejoin:miter;stroke:rgb(0%,0%,0%);stroke-opacity:1;stroke-miterlimit:10;" d="M 18.644531 35.832031 C 18.539063 36.800781 18.933594 37.714844 19.722656 37.972656 C 21.597656 38.574219 23 37.648438 23.992188 36.472656 "/>
<path style="fill:none;stroke-width:2.0083;stroke-linecap:round;stroke-linejoin:round;stroke:rgb(0%,0%,0%);stroke-opacity:1;stroke-miterlimit:10;" d="M 22.726563 32 L 45.640625 32 C 47.496094 32 49 30.484375 49 28.613281 L 49 13.554688 C 49 11.6875 47.21875 10 45.363281 10 C 45.363281 10 23.984375 10 20.636719 10 C 18.398438 10 17 12.199219 17 13.667969 L 17 25.628906 "/>
<path style=" stroke:none;fill-rule:nonzero;fill:rgb(0%,0%,0%);fill-opacity:1;" d="M 50.003906 14 L 50.003906 13.554688 C 50.003906 11.167969 47.792969 8.996094 45.363281 8.996094 L 20.636719 8.996094 C 17.761719 8.996094 15.996094 11.714844 15.996094 13.667969 L 15.996094 14 Z "/>
<path style=" stroke:none;fill-rule:nonzero;fill:rgb(0%,0%,0%);fill-opacity:1;" d="M 15.996094 18 L 15.996094 26.5625 L 23.839844 22.945313 C 25.800781 21.898438 29.484375 19.738281 31.601563 22.527344 C 32.027344 23.230469 32.128906 23.746094 31.933594 25 C 31.6875 26.597656 31.113281 27.210938 29.480469 28.359375 C 27.167969 30 24.597656 30.953125 23.785156 31.234375 C 23.488281 31.492188 22.222656 32.75 21.960938 33.003906 L 45.644531 33.003906 C 48.050781 33.003906 50.003906 31.035156 50.003906 28.613281 L 50.003906 18 Z "/>
</g>
</svg>
