<?xml version="1.0" encoding="UTF-8"?>
<svg xmlns="http://www.w3.org/2000/svg" xmlns:xlink="http://www.w3.org/1999/xlink" width="50pt" height="50pt" viewBox="0 0 50 50" version="1.1">
<g id="surface1">
<path style=" stroke:none;fill-rule:nonzero;fill:rgb(0%,0%,0%);fill-opacity:1;" d="M 25 0.0703125 C 17.320313 0.0703125 11.070313 6.320313 11.070313 14 C 11.070313 26.246094 23.726563 42.863281 24.261719 43.566406 C 24.4375 43.792969 24.710938 43.929688 25 43.929688 C 25 43.929688 25 43.929688 25.003906 43.929688 C 25.292969 43.925781 25.566406 43.789063 25.738281 43.558594 C 26.277344 42.847656 38.929688 25.964844 38.929688 14 C 38.929688 6.320313 32.679688 0.0703125 25 0.0703125 Z M 25 21 C 21.6875 21 19 18.3125 19 15 C 19 11.6875 21.6875 9 25 9 C 28.3125 9 31 11.6875 31 15 C 31 18.3125 28.3125 21 25 21 Z "/>
<path style=" stroke:none;fill-rule:nonzero;fill:rgb(0%,0%,0%);fill-opacity:1;" d="M 34.253906 34.066406 C 31.15625 39.625 28.003906 43.878906 27.339844 44.761719 C 26.789063 45.488281 25.921875 45.925781 25 45.929688 C 24.09375 45.929688 23.226563 45.5 22.679688 44.78125 C 22.402344 44.425781 19.039063 40.007813 15.726563 34.070313 C 7.835938 35.164063 1.355469 37.671875 1.03125 41.445313 C 1.011719 41.527344 1 41.613281 1 41.699219 C 1 47.09375 13.363281 50 25 50 C 36.421875 50 48.542969 47.195313 48.984375 41.996094 C 49.007813 41.914063 49.019531 41.832031 49.019531 41.742188 C 49.019531 37.796875 42.378906 35.1875 34.253906 34.066406 Z "/>
</g>
</svg>
