<svg xmlns="http://www.w3.org/2000/svg" viewBox="0 0 12.37 147.15"><title>point-direction</title><path d="M9.13,26.36h0a4,4,0,0,1,4,4h0a4,4,0,0,1-4,4h0a4,4,0,0,1-4-4h0A4,4,0,0,1,9.13,26.36Z" transform="translate(-2.94 -5)" fill="#efefef"/><path d="M9.13,50.46h0a4,4,0,0,1,4,4h0a4,4,0,0,1-4,4h0a4,4,0,0,1-4-4h0A4,4,0,0,1,9.13,50.46Z" transform="translate(-2.94 -5)" fill="#efefef"/><path d="M9.13,74.56h0a4,4,0,0,1,4,4h0a4,4,0,0,1-4,4h0a4,4,0,0,1-4-4h0A4,4,0,0,1,9.13,74.56Z" transform="translate(-2.94 -5)" fill="#efefef"/><path d="M9.13,98.66h0a4,4,0,0,1,4,4h0a4,4,0,0,1-4,4h0a4,4,0,0,1-4-4h0A4,4,0,0,1,9.13,98.66Z" transform="translate(-2.94 -5)" fill="#efefef"/><path d="M9.13,122.76h0a4,4,0,0,1,4,4h0a4,4,0,0,1-4,4h0a4,4,0,0,1-4-4h0A4,4,0,0,1,9.13,122.76Z" transform="translate(-2.94 -5)" fill="#efefef"/><path d="M9.13,5h0a6.18,6.18,0,0,1,6.18,6.18h0a6.18,6.18,0,0,1-6.18,6.18h0a6.18,6.18,0,0,1-6.18-6.18h0A6.18,6.18,0,0,1,9.13,5Z" transform="translate(-2.94 -5)" fill="#f4b503"/><path d="M9.13,139.78h0A6.18,6.18,0,0,1,15.31,146h0a6.18,6.18,0,0,1-6.18,6.18h0A6.18,6.18,0,0,1,2.94,146h0A6.18,6.18,0,0,1,9.13,139.78Z" transform="translate(-2.94 -5)" fill="#f4b503"/></svg>