<svg xmlns="http://www.w3.org/2000/svg" viewBox="0 0 1109.78 1034.26"><title>Wigoo 2-02</title><path d="M394.72,775.21c-12-6.6-25.65-3.15-33.74,9.19-5.67,8.64-10.54,17.82-15.82,26.72-3.05,5.15-6.21,10.23-10.54,17.34-3.58-7.56-6.06-12.47-8.27-17.52-8.5-19.44-16.71-39-25.42-58.34-6-13.34-15.47-18.89-28.06-17.21-11,1.46-17.24,8.51-21.33,18.15q-14.24,33.59-28.6,67.12c-2.09,4.88-4.55,9.6-7.73,16.26-4.39-7.14-7.44-11.86-10.25-16.73q-29.9-51.77-59.68-103.6c-4.72-8.21-9.67-16.24-19.69-18.55-10.44-2.4-19.81.21-26.44,8.81-7.54,9.78-6.42,20.47-.6,30.59q48.34,84.16,96.93,168.17c5.74,10,14,14.68,25.64,13.77,11.19-.87,17.75-7,22-16.91,8.74-20.46,17.7-40.82,26.64-61.2,1.79-4.08,3.88-8,6.9-14.22,3.51,7,6.15,11.8,8.36,16.78q11,24.82,21.81,49.76c4.59,10.59,12.54,15.89,24.07,16.51,11.16,0.6,18.82-4.5,24.16-13.73q24.48-42.35,48.82-84.77a26,26,0,0,0,2-4.17C410.59,794.24,406.13,781.47,394.72,775.21Z" fill="#f4b503"/><path d="M674.67,829c-0.24-15.09-4.54-19.56-19.55-20.06-14.5-.49-29-0.39-43.53-0.07-16.82.37-23.32,8.15-20.89,24.79,0.65,4.45,2.55,8.72,4,13.48L625.64,849v25.32c-20.58,8-41.34,4.33-53.62-10.16-15.26-18-16.4-39-8-59.93,7.7-19.33,24-27.32,44.27-28.66,16.73-1.11,31.49,4.64,46.52,12.26,18-16.52,16.56-34-3.35-44.44-7.19-3.79-15.43-6.74-23.44-7.52-12.81-1.25-26-1.64-38.74-.16-44.74,5.2-76.83,36.67-81.77,80.51-5.77,51.2,21.63,90.18,69.62,100.2,19.56,4.09,39.13,4.49,58.57.14A135.53,135.53,0,0,0,662,907.66c8.61-3.91,13.05-11.08,12.86-21.18C674.48,867.32,675,848.13,674.67,829Z" fill="#f4b503"/><path d="M976.62,775.66c-22.67-9-45.59-8.44-68,.92-12.73,5.31-23.11,14-29.82,26.17-14.82,26.94-15.53,54.77-1.1,81.67,13.9,25.91,38.07,35.05,69.49,35.16,3.6-.35,10.4-0.43,17-1.75,32-6.48,52.69-29.91,55.45-62.37C1022.85,816.78,1007.6,788,976.62,775.66Zm-10.55,88.92c-3.39,9.6-10.25,15.37-20.57,16.26-9.78.84-18.92-4.81-22.8-15.18-2.47-6.62-3.1-13.93-4.6-21.15,1.51-7.18,2.26-14.44,4.63-21.11,3.45-9.69,11-14.55,21.48-14.54s17.68,5.4,21.42,14.83C971,837.15,970.87,851,966.07,864.57Z" fill="#f4b503"/><path d="M790.15,770.85a87.38,87.38,0,0,0-48.8,4.68c-14.44,5.8-25.68,15.22-33.38,28.82-30.7,54.19,4.69,115.37,66.64,115.19,45.63-.13,72.67-25.36,75.72-70.66C853,809,829.26,777.89,790.15,770.85Zm5,95.83c-3.39,9-10.7,14-20.33,14.13-10.2.09-18-4.92-21.88-14.43a56,56,0,0,1,0-43.75c3.64-8.85,10.67-13.63,20.55-13.77,10.46-.15,18.26,4.37,21.77,14.11,2.58,7.14,3.44,14.9,5.05,22.34C798.63,852.82,797.71,860,795.2,866.68Z" fill="#f4b503"/><path d="M431.33,841.22c0-12.83-.12-25.66-0.06-38.49-0.06,12.83.06,25.66,0.06,38.49,0,17.63-.26,35.26.08,52.88C431.06,876.48,431.33,858.84,431.33,841.22Z" fill="#f4b503"/><path d="M458,773.31a58.63,58.63,0,0,0-12.4.33c-11.28,1.58-14,4.54-14.2,16.26q-0.1,6.41-.12,12.83c-0.06,12.83.06,25.66,0.06,38.49,0,17.63-.27,35.26.08,52.88,0.32,16,5.43,21.32,21.18,22.9a61.72,61.72,0,0,0,13.91-.27c11.57-1.48,14.4-4.27,14.47-15.89,0.23-34.73.34-69.47-.07-104.2C480.72,780.64,474.19,774.52,458,773.31Z" fill="#f4b503"/><path d="M456,708.65c-15.4.08-27,11.12-27.18,26-0.23,15,10.82,26,26.5,26.21,16,0.26,27.34-9.79,28-24.77C484,720.64,471.93,708.57,456,708.65Z" fill="#f4b503"/><path d="M649.93,376.69c-6.59,11.45-11.47,24-22.87,35.22-3.27-6-6.34-10.57-8.39-15.57-3.41-8.29-6.69-16.64-10-25-3.94,0-7.87-.07-11.82-0.09-72.17-.37-142.4.72-209.55,3.23-1.54,3.82-3.08,7.65-4.65,11.47-6.05,14.7-12.68,29.17-20.44,46.93-5.17-6.95-8.58-10.62-10.95-14.88-7.54-13.56-14.64-27.36-22.12-40.94-42.56,2.19-83.67,5-123,8.4q9.45,16.18,18.9,32.37Q272,498.45,318.3,579.41c11.24,19.73,27.26,31.75,50,31.19,24.9-.62,43.4-12.49,52.33-36.9,1.06-2.91,2.55-5.67,3.78-8.53q31.34-72.79,62.71-145.57c2.74-6.34,6.16-12.38,10.51-21,3.94,6.78,6.5,10.55,8.42,14.63,6,12.66,11.79,25.37,17.43,38.17q22.55,51.2,44.83,102.52C575,569.51,585.62,580.76,602,586c29.58,9.41,52.79.73,69.06-26,7.8-12.84,15.1-26,22.71-39,28.15-48,56.47-95.85,84.37-144-40.85-2.41-82.78-4.1-125.56-5C651.71,373.57,650.82,375.13,649.93,376.69Z" fill="#f4b503"/><path d="M908.33,395.77c-6.94,1.27-15.51-3.35-22-10.46q-27.15-2.58-55.13-4.72a95.4,95.4,0,0,0,7.07,21.6c20.44,44.66,40,89.72,59.87,134.63,2.7,6.1,5.15,12.31,9.07,21.71,4.13-8.23,6.74-13.21,9.16-18.29Q947,475.78,977.65,411.31c2.37-5,5.33-9.76,7.6-14.77q-27.85-3.7-56.88-6.91A34.5,34.5,0,0,1,908.33,395.77Z" fill="#f4b503"/><path d="M992.77,555.88c-17.55-10.64-37-15-57.81-15.26l-27.48,54.53c-4-6.67-6.07-9.56-7.54-12.75q-7.44-16.22-14.48-32.62c-1.92-4.47-3.87-8.76-9.7-8.38-19.44,1.27-38,5.76-53.44,18.21-9.75,7.86-9.51,16.85.67,24.59a71.71,71.71,0,0,0,21.83,11.3c42.6,13.12,85.5,13.16,128.28.71a81,81,0,0,0,19.75-8.78C1007.82,578.17,1007.89,565,992.77,555.88Z" fill="#f4b503"/><path d="M596.87,371.26c4,0,7.89.06,11.82,0.09-4.11-10.45-8.22-20.89-12.63-31.2C581,304.88,565.79,269.67,550,234.7c-12.45-27.65-40.2-40.77-67.79-32.61-17.46,5.16-29.58,16.66-36.8,33.29-11.14,25.68-22.41,51.3-33.18,77.13-8.57,20.56-16.63,41.33-25,62C454.47,372,524.7,370.9,596.87,371.26Z" fill="#f4b503"/><path d="M596.87,371.26c4,0,7.89.06,11.82,0.09-4.11-10.45-8.22-20.89-12.63-31.2C581,304.88,565.79,269.67,550,234.7c-12.45-27.65-40.2-40.77-67.79-32.61-17.46,5.16-29.58,16.66-36.8,33.29-11.14,25.68-22.41,51.3-33.18,77.13-8.57,20.56-16.63,41.33-25,62C454.47,372,524.7,370.9,596.87,371.26Z" fill="#fdfdfd" opacity="0.14"/><path d="M790.51,347.7C795.66,323.14,781,297,757.38,287c-24.28-10.3-52.32-3.42-66.24,18.42C677.36,327,665.29,349.72,652.6,372c42.78,0.91,84.72,2.6,125.56,5l2.83-4.86A84.3,84.3,0,0,0,790.51,347.7Z" fill="#f4b503"/><path d="M790.51,347.7C795.66,323.14,781,297,757.38,287c-24.28-10.3-52.32-3.42-66.24,18.42C677.36,327,665.29,349.72,652.6,372c42.78,0.91,84.72,2.6,125.56,5l2.83-4.86A84.3,84.3,0,0,0,790.51,347.7Z" fill="#fdfdfd" opacity="0.14"/><path d="M323.83,367.55Q261.93,259.64,199.51,152a103.62,103.62,0,0,0-16.83-22.17c-18.25-17.76-43.68-20-65.9-6.83s-32,36.33-24.52,61.33c3.07,10.28,8.14,20.17,13.56,29.51q49.93,85.94,100.3,171.63c39.36-3.41,80.47-6.21,123-8.4C327.4,373.89,325.64,370.71,323.83,367.55Z" fill="#f4b503"/><path d="M323.83,367.55Q261.93,259.64,199.51,152a103.62,103.62,0,0,0-16.83-22.17c-18.25-17.76-43.68-20-65.9-6.83s-32,36.33-24.52,61.33c3.07,10.28,8.14,20.17,13.56,29.51q49.93,85.94,100.3,171.63c39.36-3.41,80.47-6.21,123-8.4C327.4,373.89,325.64,370.71,323.83,367.55Z" fill="#fdfdfd" opacity="0.14"/><path d="M938.64,291.21C900.34,276,854.4,295,837.07,333.32c-7.18,15.87-8.92,31.53-5.88,47.27q28,2.13,55.13,4.72c-5.94-6.51-10.15-15.1-9.77-23.21,0.8-17.12,16.59-31,34.78-30.38,17.8,0.59,31.58,14.44,31.46,31.62a32.41,32.41,0,0,1-14.43,26.29q29,3.2,56.88,6.91a48,48,0,0,0,1.87-4.7C1000.18,352.37,978.07,306.8,938.64,291.21Z" fill="#f4b503"/><path d="M938.64,291.21C900.34,276,854.4,295,837.07,333.32c-7.18,15.87-8.92,31.53-5.88,47.27q28,2.13,55.13,4.72c-5.94-6.51-10.15-15.1-9.77-23.21,0.8-17.12,16.59-31,34.78-30.38,17.8,0.59,31.58,14.44,31.46,31.62a32.41,32.41,0,0,1-14.43,26.29q29,3.2,56.88,6.91a48,48,0,0,0,1.87-4.7C1000.18,352.37,978.07,306.8,938.64,291.21Z" fill="#fdfdfd" opacity="0.14"/></svg>