<svg id="Layer_1" data-name="Layer 1" xmlns="http://www.w3.org/2000/svg" viewBox="0 0 610.07 760.02"><defs><style>.cls-1{fill:#f4b503;}.cls-2{fill:#fff;}.cls-3,.cls-4{fill:#fdfdfd;}.cls-4{opacity:0.14;}</style></defs><title>LOGO PRETO</title><path d="M868.8,463.63c0-62.09-.17-124.19.14-186.28,0.06-13.17-1.43-25.92-5.42-38.34-11.35-35.35-33.69-60.35-69.35-72.41a125.42,125.42,0,0,0-40.54-6.6q-190.18.1-380.36,0.13a131,131,0,0,0-23.19,2.11c-51.8,9.43-90.27,55.52-90.38,108.06q-0.26,117.69-.41,235.37c-0.06,50.4.07,100.81-.08,151.21a111.33,111.33,0,0,0,3.63,28.46c13.11,50.66,55.95,84.32,108.11,84.36q193.3,0.14,386.59-.05a113,113,0,0,0,20.91-1.91c51.51-9.8,88-52.14,90.64-104V463.63H868.8Zm-162-17.47c8.69-19.19,31.7-28.7,50.9-21.11,19.76,7.82,30.84,30.65,24.29,50.43-1.13,3.4-3.19,6.49-4.74,9.76q-15.37,32.3-30.71,64.61c-1.21,2.54-2.52,5-4.59,9.17-2-4.71-3.19-7.82-4.55-10.88-10-22.51-19.76-45.09-30-67.47C702.12,469.09,701.58,457.73,706.82,446.16Zm-23.34,7.2a42.24,42.24,0,0,1-4.77,12.26c-14.44,24.93-29.12,49.73-43.7,74.58-3.81,6.5-7.47,13.09-11.38,19.52-8.15,13.42-19.78,17.77-34.61,13.05-8.22-2.61-13.54-8.25-16.92-16.08Q561,531,549.64,505.32c-2.82-6.41-5.75-12.79-8.73-19.13-1-2-2.25-3.93-4.22-7.33-2.18,4.34-3.89,7.37-5.27,10.54q-15.77,36.45-31.42,73c-0.62,1.43-1.36,2.81-1.9,4.27-4.47,12.23-13.74,18.18-26.22,18.49-11.37.28-19.4-5.74-25-15.63q-23.14-40.62-46.75-81c-19.86-34.11-39.91-68.11-59.74-102.23a69.83,69.83,0,0,1-6.8-14.79c-3.74-12.53,1.17-24.15,12.29-30.73s23.88-5.48,33,3.42a51.93,51.93,0,0,1,8.44,11.11q31.31,53.92,62.31,108c4.77,8.32,9.09,16.9,13.75,25.29,1.19,2.13,2.9,4,5.49,7.46,3.89-8.9,7.21-16.15,10.25-23.52,5-12.23,9.75-24.6,14.84-36.81,5.39-12.95,11-25.79,16.63-38.65,3.62-8.33,9.69-14.1,18.44-16.68,13.83-4.09,27.74,2.49,34,16.34,7.89,17.53,15.52,35.17,23.06,52.85,4,9.3,7.47,18.8,11.32,28.16a87.72,87.72,0,0,0,4.21,7.8c5.71-5.61,8.16-11.91,11.46-17.65,6.86-11.92,13.26-24.13,20.65-35.71,7-10.94,21-14.39,33.2-9.23C678.7,428,686.07,441.06,683.49,453.36Zm101.4,120.14a40.56,40.56,0,0,1-9.9,4.4,109.89,109.89,0,0,1-64.29-.35,35.94,35.94,0,0,1-10.94-5.66c-5.1-3.88-5.22-8.38-.33-12.32,7.74-6.24,17-8.49,26.78-9.12,2.92-.19,3.9,2,4.86,4.2q3.53,8.22,7.25,16.35c0.73,1.6,1.78,3,3.78,6.39L755.88,550c10.44,0.14,20.18,2.32,29,7.65C792.42,562.29,792.39,568.86,784.89,573.51Z" transform="translate(-259.19 -159.99)"/><path class="cls-1" d="M666.88,423c-12.17-5.16-26.22-1.71-33.2,9.23C626.3,443.77,619.9,456,613,467.89c-3.3,5.74-5.75,12-11.46,17.65a87.72,87.72,0,0,1-4.21-7.8c-3.85-9.35-7.35-18.86-11.32-28.16-7.55-17.68-15.17-35.32-23.06-52.85-6.24-13.86-20.14-20.43-34-16.34-8.75,2.59-14.82,8.35-18.44,16.68-5.58,12.87-11.23,25.71-16.63,38.65-5.09,12.21-9.81,24.58-14.84,36.81-3,7.37-6.36,14.62-10.25,23.52-2.59-3.48-4.3-5.32-5.49-7.46-4.66-8.39-9-17-13.75-25.29q-31-54.08-62.31-108a51.93,51.93,0,0,0-8.44-11.11c-9.14-8.9-21.89-10-33-3.42s-16,18.21-12.29,30.73a69.83,69.83,0,0,0,6.8,14.79c19.83,34.13,39.87,68.13,59.74,102.23q23.53,40.4,46.75,81c5.63,9.89,13.66,15.91,25,15.63,12.48-.31,21.75-6.26,26.22-18.49,0.53-1.46,1.28-2.84,1.9-4.27q15.7-36.48,31.42-73c1.37-3.18,3.09-6.21,5.27-10.54,2,3.4,3.26,5.29,4.22,7.33,3,6.34,5.91,12.71,8.73,19.13q11.3,25.66,22.47,51.38c3.38,7.83,8.7,13.46,16.92,16.08,14.82,4.71,26.45.36,34.61-13.05,3.91-6.43,7.57-13,11.38-19.52,14.58-24.85,29.26-49.65,43.7-74.58a42.24,42.24,0,0,0,4.77-12.26C686.07,441.06,678.7,428,666.88,423Z" transform="translate(-259.19 -159.99)"/><path class="cls-1" d="M737.42,548.14c1.35,3.06,2.58,6.17,4.55,10.88,2.07-4.12,3.38-6.62,4.59-9.17q15.37-32.3,30.71-64.61c1.56-3.27,3.62-6.35,4.74-9.76,6.55-19.78-4.53-42.61-24.29-50.43-19.2-7.6-42.22,1.92-50.9,21.11-5.24,11.57-4.7,22.93.6,34.51C717.66,503.05,727.46,525.63,737.42,548.14Zm-10.82-87.56c0.4-8.58,8.31-15.52,17.43-15.22,8.92,0.29,15.82,7.23,15.77,15.85-0.06,9-7.95,16.38-17.27,16.25C735.87,478.68,726.21,469.08,726.61,460.58Z" transform="translate(-259.19 -159.99)"/><path class="cls-1" d="M784.85,557.7c-8.79-5.33-18.53-7.51-29-7.65l-13.77,27.33c-2-3.34-3-4.79-3.78-6.39q-3.73-8.13-7.25-16.35c-1-2.24-1.94-4.39-4.86-4.2-9.74.64-19,2.89-26.78,9.12-4.89,3.94-4.76,8.45.33,12.32a35.94,35.94,0,0,0,10.94,5.66,109.89,109.89,0,0,0,64.29.35,40.56,40.56,0,0,0,9.9-4.4C792.39,568.86,792.42,562.29,784.85,557.7Z" transform="translate(-259.19 -159.99)"/><path d="M485.14,847.61c-6-3.31-12.85-1.58-16.91,4.6-2.84,4.33-5.28,8.93-7.93,13.39-1.53,2.58-3.11,5.13-5.28,8.69-1.79-3.79-3-6.25-4.14-8.78-4.26-9.74-8.37-19.55-12.74-29.24-3-6.68-7.76-9.47-14.06-8.63-5.49.73-8.64,4.26-10.69,9.1q-7.14,16.83-14.33,33.64c-1,2.44-2.28,4.81-3.88,8.15-2.2-3.58-3.73-5.95-5.14-8.38q-15-25.94-29.91-51.92c-2.36-4.12-4.85-8.14-9.87-9.3-5.23-1.2-9.93.1-13.25,4.42-3.78,4.9-3.22,10.26-.3,15.33q24.22,42.17,48.58,84.28c2.88,5,7,7.36,12.85,6.9,5.61-.44,8.9-3.53,11-8.48,4.38-10.25,8.87-20.46,13.35-30.67,0.9-2,1.95-4,3.46-7.13,1.76,3.51,3.08,5.91,4.19,8.41q5.53,12.44,10.93,24.94c2.3,5.31,6.28,8,12.06,8.27,5.6,0.3,9.43-2.25,12.11-6.88q12.27-21.22,24.47-42.48a13,13,0,0,0,1-2.09C493.1,857.15,490.86,850.75,485.14,847.61Z" transform="translate(-259.19 -159.99)"/><path d="M625.43,874.55c-0.12-7.56-2.28-9.8-9.8-10.05-7.26-.24-14.55-0.2-21.81,0-8.43.19-11.69,4.09-10.47,12.43a48.8,48.8,0,0,0,2,6.76l15.51,1v12.69c-10.31,4-20.72,2.17-26.87-5.09-7.65-9-8.22-19.52-4-30,3.86-9.69,12-13.69,22.19-14.36,8.38-.55,15.78,2.33,23.32,6.14,9-8.28,8.3-17-1.68-22.27A32.78,32.78,0,0,0,602,827.9a92,92,0,0,0-19.42-.08c-22.42,2.61-38.5,18.38-41,40.35-2.89,25.66,10.84,45.19,34.89,50.22a68.76,68.76,0,0,0,29.35.07A67.92,67.92,0,0,0,619.07,914c4.31-2,6.54-5.55,6.45-10.61C625.34,893.77,625.59,884.15,625.43,874.55Z" transform="translate(-259.19 -159.99)"/><path d="M776.76,847.83a43.74,43.74,0,0,0-34.1.46,29.59,29.59,0,0,0-14.94,13.11c-7.42,13.5-7.79,27.45-.55,40.93,7,13,19.08,17.57,34.82,17.62a71.7,71.7,0,0,0,8.5-.88c16.05-3.25,26.4-15,27.79-31.26C799.92,868.44,792.28,854,776.76,847.83Zm-5.29,44.56c-1.7,4.81-5.14,7.7-10.31,8.15-4.9.42-9.48-2.41-11.42-7.61-1.24-3.32-1.55-7-2.31-10.6,0.76-3.6,1.13-7.24,2.32-10.58,1.73-4.85,5.5-7.29,10.76-7.29s8.86,2.71,10.73,7.43A28.5,28.5,0,0,1,771.47,892.39Z" transform="translate(-259.19 -159.99)"/><path d="M683.31,845.42a43.79,43.79,0,0,0-24.46,2.34,32.48,32.48,0,0,0-16.73,14.44c-15.38,27.16,2.35,57.81,33.4,57.73,22.87-.06,36.42-12.71,37.94-35.41C714.81,864.54,702.91,849,683.31,845.42Zm2.53,48a10.46,10.46,0,0,1-10.19,7.08,11.07,11.07,0,0,1-11-7.23,28,28,0,0,1,0-21.92,10.56,10.56,0,0,1,10.3-6.9c5.24-.08,9.15,2.19,10.91,7.07,1.29,3.58,1.72,7.47,2.53,11.19C687.56,886.5,687.1,890.13,685.84,893.45Z" transform="translate(-259.19 -159.99)"/><path d="M503.49,880.69c0-6.43-.06-12.86,0-19.29,0,6.43,0,12.86,0,19.29,0,8.83-.13,17.67,0,26.5C503.35,898.36,503.49,889.52,503.49,880.69Z" transform="translate(-259.19 -159.99)"/><path d="M516.85,846.66a29.38,29.38,0,0,0-6.21.17c-5.65.79-7,2.27-7.12,8.15q-0.05,3.21-.06,6.43c0,6.43,0,12.86,0,19.29,0,8.83-.13,17.67,0,26.5,0.16,8,2.72,10.68,10.62,11.48a30.93,30.93,0,0,0,7-.14c5.8-.74,7.21-2.14,7.25-8,0.11-17.41.17-34.81,0-52.22C528.24,850.33,525,847.26,516.85,846.66Z" transform="translate(-259.19 -159.99)"/><path d="M515.85,814.25c-7.72,0-13.51,5.57-13.62,13s5.42,13,13.28,13.13c8,0.13,13.7-4.9,14-12.41C529.86,820.26,523.83,814.21,515.85,814.25Z" transform="translate(-259.19 -159.99)"/><path class="cls-2" d="M760.52,864.47c-5.26,0-9,2.43-10.76,7.29-1.19,3.34-1.56,7-2.32,10.58,0.75,3.62,1.07,7.28,2.31,10.6,1.94,5.2,6.53,8,11.42,7.61,5.17-.44,8.61-3.33,10.31-8.15a28.5,28.5,0,0,0-.22-20.49C769.38,867.17,765.83,864.48,760.52,864.47Z" transform="translate(-259.19 -159.99)"/><path class="cls-2" d="M675,864.47a10.56,10.56,0,0,0-10.3,6.9,28,28,0,0,0,0,21.92,11.07,11.07,0,0,0,11,7.23,10.46,10.46,0,0,0,10.19-7.08c1.26-3.32,1.72-6.95,2.6-10.71-0.81-3.73-1.24-7.61-2.53-11.19C684.15,866.66,680.24,864.39,675,864.47Z" transform="translate(-259.19 -159.99)"/><path d="M742.53,477.46c9.33,0.12,17.21-7.3,17.27-16.25,0.06-8.61-6.85-15.55-15.77-15.85-9.11-.3-17,6.64-17.43,15.22S735.87,478.68,742.53,477.46Z" transform="translate(-259.19 -159.99)"/><path class="cls-3" d="M869.25,463.63h-0.18v200.1c0.1-2,.17-4,0.17-6Q869.29,560.66,869.25,463.63Z" transform="translate(-259.19 -159.99)"/><path class="cls-4" d="M586.45,465.18c108.43,0.55,207.63,11.15,282.62,28.09l-1-225.09c0-59.24-48.47-107.7-107.7-107.7H368.11c-59.24,0-107.7,48.47-107.7,107.7l-1,223.09C338,473.31,455.9,464.51,586.45,465.18Z" transform="translate(-259.19 -159.99)"/></svg>