<svg id="Layer_1" data-name="Layer 1" xmlns="http://www.w3.org/2000/svg" viewBox="0 0 590.75 735.92"><title>LOGO AMARELO1</title><path d="M590.28,294c0-60.13-.16-120.25.13-180.38a118.34,118.34,0,0,0-5.25-37.13c-11-34.23-32.62-58.44-67.16-70.12A121.45,121.45,0,0,0,478.75,0Q294.6,0.09,110.45.12A126.81,126.81,0,0,0,88,2.12C37.83,11.25.58,55.88,0.47,106.75q-0.25,114-.4,227.91C0,383.47.14,432.27,0,481.08a107.8,107.8,0,0,0,3.52,27.58c12.69,49,54.18,81.65,104.68,81.69q187.17,0.13,374.34,0a109.42,109.42,0,0,0,20.25-1.85C552.66,579,588,538,590.54,487.75V294h-0.26ZM433.44,277.1c8.41-18.58,30.7-27.79,49.29-20.44,19.13,7.57,29.86,29.68,23.52,48.83-1.09,3.29-3.09,6.28-4.59,9.45q-14.88,31.27-29.74,62.56c-1.17,2.46-2.44,4.88-4.44,8.88-1.9-4.56-3.09-7.57-4.4-10.53-9.65-21.79-19.14-43.66-29.05-65.33-5.15-11.22-5.66-22.21-.59-33.42h0Zm-22.6,7A40.9,40.9,0,0,1,406.22,296c-14,24.14-28.19,48.16-42.32,72.22-3.69,6.29-7.23,12.67-11,18.9-7.9,13-19.16,17.2-33.51,12.64-8-2.53-13.11-8-16.38-15.57q-10.76-24.93-21.76-49.75-4.11-9.31-8.46-18.52c-0.93-2-2.18-3.81-4.09-7.1-2.11,4.2-3.77,7.13-5.1,10.21q-15.27,35.3-30.43,70.64c-0.6,1.39-1.32,2.72-1.83,4.14C227,405.63,218,411.38,206,411.68c-11,.27-18.79-5.56-24.24-15.13q-22.41-39.33-45.27-78.4c-19.23-33-38.64-65.95-57.84-99A67.62,67.62,0,0,1,72,204.83c-3.63-12.13,1.13-23.38,11.9-29.76s23.12-5.3,32,3.32a50.28,50.28,0,0,1,8.17,10.76q30.31,52.21,60.33,104.59c4.62,8.06,8.8,16.37,13.32,24.49,1.15,2.07,2.8,3.85,5.31,7.22,3.77-8.62,7-15.64,9.92-22.77,4.87-11.85,9.44-23.82,14.37-35.64,5.22-12.54,10.69-25,16.1-37.43,3.5-8.07,9.38-13.65,17.86-16.15,13.39-4,26.86,2.41,32.9,15.82,7.64,17,15,34.06,22.33,51.17,3.85,9,7.24,18.21,11,27.27a84.94,84.94,0,0,0,4.07,7.55c5.53-5.43,7.9-11.54,11.1-17.09,6.65-11.54,12.84-23.36,20-34.58,6.76-10.59,20.36-13.93,32.14-8.94,11.37,4.83,18.5,17.5,16,29.42ZM509,400.44a39.28,39.28,0,0,1-9.58,4.26,106.41,106.41,0,0,1-62.25-.34,34.8,34.8,0,0,1-10.59-5.48c-4.94-3.75-5.05-8.12-.32-11.93,7.49-6,16.5-8.22,25.93-8.83,2.83-.19,3.77,1.89,4.71,4.07q3.42,8,7,15.83c0.71,1.55,1.73,3,3.66,6.18l13.35-26.54c10.11,0.13,19.54,2.24,28.05,7.4,7.34,4.49,7.31,10.86,0,15.35v0Z" transform="translate(0.01 0)" fill="#f4b503"/><path d="M394.81,254.66c-11.78-5-25.39-1.66-32.14,8.94-7.15,11.21-13.35,23-20,34.58-3.2,5.55-5.57,11.66-11.1,17.09a84.94,84.94,0,0,1-4.07-7.55c-3.73-9.06-7.12-18.26-11-27.27-7.31-17.12-14.69-34.2-22.33-51.17-6-13.42-19.51-19.78-32.9-15.82-8.47,2.5-14.35,8.09-17.86,16.15C238,242.07,232.53,254.5,227.31,267c-4.93,11.82-9.5,23.8-14.37,35.64-2.94,7.14-6.15,14.16-9.92,22.77-2.51-3.37-4.16-5.15-5.31-7.22-4.52-8.12-8.69-16.43-13.32-24.49q-30-52.37-60.33-104.59a50.28,50.28,0,0,0-8.17-10.76c-8.85-8.62-21.2-9.7-32-3.32S68.37,192.7,72,204.83a67.62,67.62,0,0,0,6.58,14.32c19.2,33,38.61,66,57.84,99q22.78,39.12,45.27,78.4c5.46,9.57,13.23,15.41,24.24,15.13,12.08-.3,21.06-6.06,25.39-17.9,0.52-1.41,1.24-2.75,1.83-4.14L263.57,319c1.33-3.08,3-6,5.1-10.21,1.91,3.29,3.16,5.12,4.09,7.1q4.34,9.21,8.46,18.52,10.94,24.85,21.76,49.75c3.27,7.58,8.42,13,16.38,15.57,14.35,4.57,25.62.35,33.51-12.64,3.79-6.23,7.33-12.61,11-18.9C378,344.13,392.2,320.12,406.19,296a40.9,40.9,0,0,0,4.62-11.87C413.34,272.16,406.21,259.49,394.81,254.66Z" transform="translate(0.01 0)"/><path d="M463.07,375.85c1.31,3,2.5,6,4.4,10.53,2-4,3.27-6.41,4.44-8.88q14.88-31.27,29.74-62.56c1.51-3.16,3.5-6.15,4.59-9.45,6.34-19.15-4.39-41.26-23.52-48.83-18.59-7.36-40.88,1.86-49.29,20.44-5.07,11.21-4.56,22.2.58,33.42C443.93,332.19,453.42,354.05,463.07,375.85ZM452.6,291.07c0.39-8.31,8.05-15,16.88-14.74,8.64,0.29,15.32,7,15.27,15.34-0.06,8.67-7.69,15.86-16.72,15.74-6.46,1.18-15.82-8.11-15.43-16.35h0Z" transform="translate(0.01 0)"/><path d="M509,385.1c-8.51-5.16-17.94-7.27-28.05-7.4l-13.33,26.46c-1.93-3.24-2.95-4.64-3.66-6.18q-3.61-7.87-7-15.83c-0.93-2.17-1.88-4.25-4.71-4.07-9.43.62-18.44,2.8-25.93,8.83-4.73,3.81-4.61,8.18.32,11.93a34.8,34.8,0,0,0,10.59,5.48,106.41,106.41,0,0,0,62.25.34A39.28,39.28,0,0,0,509,400.4C516.3,395.92,516.33,389.55,509,385.1Z" transform="translate(0.01 0)"/><path d="M218.81,665.83c-5.84-3.2-12.44-1.53-16.37,4.46-2.75,4.19-5.11,8.65-7.68,13-1.48,2.5-3,5-5.11,8.41-1.74-3.67-2.94-6-4-8.5-4.12-9.43-8.11-18.93-12.34-28.31-2.92-6.47-7.51-9.17-13.61-8.35-5.32.71-8.36,4.13-10.35,8.81q-6.91,16.3-13.88,32.57c-1,2.37-2.21,4.66-3.75,7.89-2.13-3.47-3.61-5.76-5-8.12q-14.51-25.12-29-50.27c-2.29-4-4.69-7.88-9.55-9-5.07-1.17-9.61.1-12.83,4.28-3.66,4.75-3.11,9.93-.29,14.85q23.46,40.84,47,81.61c2.79,4.84,6.78,7.12,12.44,6.68,5.43-.42,8.62-3.42,10.66-8.21,4.24-9.93,8.59-19.81,12.93-29.7,0.87-2,1.89-3.9,3.35-6.9,1.7,3.4,3,5.73,4.06,8.14q5.36,12,10.58,24.15c2.23,5.14,6.08,7.71,11.68,8,5.42,0.29,9.13-2.18,11.73-6.66q11.88-20.55,23.69-41.14a12.61,12.61,0,0,0,1-2C226.48,675.06,224.32,668.86,218.81,665.83Z" transform="translate(0.01 0)" fill="#f4b503"/><path d="M354.63,691.91c-0.12-7.32-2.21-9.49-9.49-9.74-7-.24-14.08-0.19-21.12,0-8.16.18-11.32,4-10.14,12a47.26,47.26,0,0,0,1.94,6.54l15,0.93v12.29c-10,3.86-20.06,2.1-26-4.93-7.4-8.73-8-18.9-3.9-29.08,3.74-9.38,11.65-13.26,21.48-13.91,8.12-.54,15.28,2.25,22.58,6,8.75-8,8-16.47-1.62-21.57A31.75,31.75,0,0,0,332,646.74a89.09,89.09,0,0,0-18.8-.08c-21.71,2.52-37.28,17.79-39.68,39.07-2.8,24.84,10.5,43.76,33.78,48.62a66.58,66.58,0,0,0,28.42.07,65.77,65.77,0,0,0,12.77-4.33c4.18-1.9,6.33-5.38,6.24-10.28C354.54,710.52,354.81,701.21,354.63,691.91Z" transform="translate(0.01 0)" fill="#f4b503"/><path d="M501.16,666a42.35,42.35,0,0,0-33,.45,28.65,28.65,0,0,0-14.47,12.7c-7.19,13.07-7.54,26.58-.53,39.63,6.75,12.57,18.48,17,33.72,17.06a69.43,69.43,0,0,0,8.23-.85c15.54-3.14,25.57-14.51,26.91-30.27C523.59,686,516.19,672,501.16,666ZM496,709.19c-1.64,4.66-5,7.46-10,7.89A10.77,10.77,0,0,1,475,709.71c-1.2-3.21-1.5-6.76-2.23-10.26,0.73-3.49,1.09-7,2.25-10.24,1.68-4.7,5.33-7.06,10.42-7s8.58,2.62,10.39,7.2a27.59,27.59,0,0,1,.22,19.83h0Z" transform="translate(0.01 0)" fill="#f4b503"/><path d="M410.67,663.66A42.4,42.4,0,0,0,387,665.93a31.45,31.45,0,0,0-16.2,14c-14.9,26.3,2.28,56,32.34,55.9,22.14-.06,35.26-12.31,36.74-34.29C441.17,682.22,429.65,667.13,410.67,663.66Zm2.45,46.5a10.12,10.12,0,0,1-9.87,6.86,10.72,10.72,0,0,1-10.62-7,27.15,27.15,0,0,1,0-21.23,10.22,10.22,0,0,1,10-6.68c5.07-.07,8.86,2.12,10.56,6.85,1.25,3.47,1.67,7.23,2.45,10.84-0.83,3.69-1.3,7.2-2.52,10.41v0Z" transform="translate(0.01 0)" fill="#f4b503"/><path d="M236.55,697.86c0-6.23-.06-12.45,0-18.68v18.68c0,8.55-.13,17.11,0,25.66C236.42,715,236.55,706.41,236.55,697.86Z" transform="translate(0.01 0)" fill="#f4b503"/><path d="M249.48,664.9a28.45,28.45,0,0,0-6,.16c-5.47.77-6.8,2.2-6.89,7.89q0,3.11-.06,6.23v18.68c0,8.55-.13,17.11,0,25.66,0.15,7.75,2.63,10.34,10.28,11.11a30,30,0,0,0,6.75-.13c5.62-.72,7-2.07,7-7.71,0.11-16.85.16-33.71,0-50.56C260.51,668.46,257.34,665.49,249.48,664.9Z" transform="translate(0.01 0)" fill="#f4b503"/><path d="M248.51,633.53c-7.47,0-13.08,5.4-13.19,12.61s5.25,12.59,12.86,12.72c7.76,0.13,13.27-4.75,13.58-12C262.08,639.35,256.25,633.49,248.51,633.53Z" transform="translate(0.01 0)" fill="#f4b503"/><path d="M468,307.4c9,0.12,16.67-7.07,16.72-15.74,0.05-8.34-6.63-15.06-15.27-15.34-8.82-.29-16.49,6.43-16.88,14.74S461.57,308.59,468,307.4Z" transform="translate(0.01 0)" fill="#f4b503"/><path d="M590.72,294h-0.17V487.78c0.1-1.94.17-3.88,0.17-5.85Q590.76,388,590.72,294Z" transform="translate(0.01 0)" fill="#fdfdfd"/><path d="M316.88,295.51c105,0.54,201.05,10.79,273.67,27.2l-1-218C589.55,47.35,542.62.42,485.26,0.42H105.46C48.1,0.42,1.17,47.35,1.17,104.71l-1,216C76.35,303.39,190.47,294.87,316.88,295.51Z" transform="translate(0.01 0)" fill="#fdfdfd" opacity="0.14" style="isolation:isolate"/></svg>